HIERARCHY
ROOT ui
{
	 OFFSET 0 0 0
	 CHANNELS 3 XPosition YPosition Z Position
	 EndSite
	 {
	 OFFSET 0 -1 0
	 }
}
ROOT li
{
	 OFFSET 0 0 0
	 CHANNELS 3 XPosition YPosition Z Position
	 EndSite
	 {
	 OFFSET 0 -1 0
	 }
}
ROOT ul
{
	 OFFSET 0 0 0
	 CHANNELS 3 XPosition YPosition Z Position
	 EndSite
	 {
	 OFFSET 0 -1 0
	 }
}
ROOT ll
{
	 OFFSET 0 0 0
	 CHANNELS 3 XPosition YPosition Z Position
	 EndSite
	 {
	 OFFSET 0 -1 0
	 }
}
ROOT tt
{
	 OFFSET 0 0 0
	 CHANNELS 3 XPosition YPosition Z Position
	 EndSite
	 {
	 OFFSET 0 -1 0
	 }
}
ROOT tb
{
	 OFFSET 0 0 0
	 CHANNELS 3 XPosition YPosition Z Position
	 EndSite
	 {
	 OFFSET 0 -1 0
	 }
}
ROOT td
{
	 OFFSET 0 0 0
	 CHANNELS 3 XPosition YPosition Z Position
	 EndSite
	 {
	 OFFSET 0 -1 0
	 }
}
ROOT v
{
	 OFFSET 0 0 0
	 CHANNELS 3 XPosition YPosition Z Position
	 EndSite
	 {
	 OFFSET 0 -1 0
	 }
}
ROOT bn
{
	 OFFSET 0 0 0
	 CHANNELS 3 XPosition YPosition Z Position
	 EndSite
	 {
	 OFFSET 0 -1 0
	 }
}
MOTION
Frames: 13
Frame Time: 0.002
0.010778605461120605	-6.667460203170776E-4	0		0.47656759643554686	-2.3320625	0		-1.1317894287109376	0.09208773803710937	0		-0.7740127563476562	-2.52848486328125	0		1.507455322265625	-0.37958203125	0		3.08427685546875	0.1752573547363281	0		4.587626953125	0.29830169677734375	0		5.6108515625	0.11999053192138671	0		-0.3050644226074219	5.972681640625	0		
0.006202988147735596	-0.003373086929321289	0		0.470895263671875	-2.33598388671875	0		-1.14423193359375	0.09505128479003906	0		-0.8177521362304687	-2.530153564453125	0		1.4986160888671876	-0.38790924072265626	0		3.0606611328125	0.16446678161621095	0		4.57826123046875	0.2975652770996094	0		5.60970361328125	0.11600984191894531	0		-0.18759275817871093	5.98500732421875	0		
-0.025101736068725587	0.0024035189151763916	0		0.4663757019042969	-2.33892724609375	0		-1.1396795654296874	0.09069951629638671	0		-0.7962189331054688	-2.5249833984375	0		1.497039794921875	-0.3883587646484375	0		3.059336669921875	0.1633042755126953	0		4.57699755859375	0.29571014404296875	0		5.60569970703125	0.10009085845947266	0		-0.18626036071777344	5.98532666015625	0		
-0.02452742576599121	-0.005399494171142578	0		0.4401563720703125	-2.333466064453125	0		-1.146822265625	0.0965386505126953	0		-0.824744140625	-2.530921630859375	0		1.4955897216796874	-0.38880224609375	0		3.0480029296875	0.1553541259765625	0		4.5797197265625	0.2868245849609375	0		5.60472509765625	0.09625078582763671	0		-0.18487791442871093	5.98563037109375	0		
0.002368662118911743	-0.002716068983078003	0		0.47278848266601564	-2.345112060546875	0		-1.1369747314453125	0.09502714538574218	0		-0.8120783081054688	-2.535646484375	0		1.3765198974609374	-0.3749866027832031	0		3.06715966796875	0.16687413024902345	0		4.5786884765625	0.2850732116699219	0		5.6067880859375	0.10452121734619141	0		-0.16830265808105468	5.99462890625	0		
-5.010510087013245E-4	0.005512269020080567	0		0.4391260375976562	-2.328492431640625	0		-1.137960693359375	0.09568215942382813	0		-0.7967886352539062	-2.5174580078125	0		1.5002406005859374	-0.3817891540527344	0		3.049050048828125	0.158149169921875	0		4.5818955078125	0.28932086181640626	0		5.606	0.100980224609375	0		-0.18205792236328125	5.9861826171875	0		
0.05042251968383789	-0.004343050003051758	0		0.46019821166992186	-2.33594091796875	0		-1.0707275390625	0.099943359375	0		-0.7939244384765625	-2.53107275390625	0		1.4920467529296875	-0.3900495300292969	0		3.073355224609375	0.16365516662597657	0		4.57699853515625	0.28181637573242185	0		5.60531103515625	0.09763138580322266	0		-0.18064738464355468	5.986427734375	0		
-0.025293981552124024	-0.0016868510246276856	0		0.4326546325683594	-2.333422607421875	0		-1.1464266357421875	0.10200234985351563	0		-0.8064197387695312	-2.52240869140625	0		1.4911561279296874	-0.39042718505859375	0		3.0666240234375	0.16083137512207032	0		4.5724912109375	0.28741036987304686	0		5.60472412109375	0.09449222564697266	0		-0.1792482452392578	5.98664990234375	0		
0.04110046005249023	-0.0019154540300369263	0		0.4572206115722656	-2.335960205078125	0		-1.1451689453125	0.09448432159423828	0		-0.8428009033203125	-2.518281494140625	0		1.366543701171875	-0.383235595703125	0		3.05886181640625	0.15009764099121095	0		4.57197509765625	0.2860298767089844	0		5.604240234375	0.09157450866699218	0		-0.17786871337890625	5.986849609375	0		
-0.026381629943847656	-0.0014083579778671265	0		0.42483059692382813	-2.345328857421875	0		-1.1405538330078124	0.0978509292602539	0		-0.7833916625976562	-2.5351708984375	0		1.4898203125	-0.39111575317382813	0		3.033291748046875	0.14280902099609374	0		4.5702744140625	0.2697806091308594	0		5.60385595703125	0.08888577270507812	0		-0.1603533172607422	5.99468994140625	0		
0.05129865264892578	-9.456490278244019E-4	0		0.46018673706054686	-2.32910693359375	0		-1.136787109375	0.10218632507324218	0		-0.8532548828125	-2.525392578125	0		1.3747313232421876	-0.37299810791015625	0		3.084440673828125	0.16298870849609376	0		4.5734267578125	0.288548583984375	0		5.60652734375	0.09839055633544921	0		-0.1580550994873047	5.99381787109375	0		
-0.03183912086486816	0.0039028589725494385	0		0.43034756469726565	-2.330514404296875	0		-1.147958251953125	0.10379270935058593	0		-0.8089675903320312	-2.519055908203125	0		1.4890489501953126	-0.39171017456054685	0		3.046055419921875	0.1531195068359375	0		4.571171875	0.2825361328125	0		5.60337548828125	0.08420500946044922	0		-0.15969085693359375	5.99800732421875	0		
0.04790616226196289	-0.0037465009689331055	0		0.4536065368652344	-2.336056884765625	0		-1.1521063232421875	0.10120671844482422	0		-0.8357821655273437	-2.5252412109375	0		1.4888541259765624	-0.39197177124023436	0		3.04772265625	0.1404700164794922	0		4.57497509765625	0.27450189208984377	0		5.603265625	0.0822074203491211	0		-0.17269398498535157	5.9874189453125	0		
